G04 EasyPC Gerber Version 21.0.3 Build 4286 *
G04 #@! TF.Part,Single*
G04 #@! TF.FileFunction,Legend,Top *
G04 #@! TF.FilePolarity,Positive *
%FSLAX35Y35*%
%MOIN*%
%ADD20C,0.00100*%
%ADD15C,0.00500*%
X0Y0D02*
D02*
D15*
X6520Y49591D02*
X49820D01*
Y92891*
X6520*
Y49591*
Y92891D02*
X49820Y49591D01*
X6530Y6283D02*
X49830D01*
Y49583*
X6530*
Y6283*
Y49583D02*
X49830Y6283D01*
X28163Y92829D02*
Y49571D01*
X28173Y49522D02*
Y6264D01*
X49720Y92791D02*
X6520Y49591D01*
X49730Y49483D02*
X6530Y6283D01*
X49797Y71244D02*
X6697D01*
X49807Y27937D02*
X6707D01*
X49817Y49591D02*
X93117D01*
Y92891*
X49817*
Y49591*
Y92891D02*
X93117Y49591D01*
X49827Y6283D02*
X93127D01*
Y49583*
X49827*
Y6283*
Y49583D02*
X93127Y6283D01*
X71461Y92829D02*
Y49571D01*
X71470Y49522D02*
Y6264D01*
X93017Y92791D02*
X49817Y49591D01*
X93027Y49483D02*
X49827Y6283D01*
X93094Y71244D02*
X49994D01*
X93104Y27937D02*
X50004D01*
D02*
D20*
X22456Y19423D02*
X22925D01*
Y19267*
X22769Y18954*
X22612Y18798*
X22300Y18642*
X21987*
X21675Y18798*
X21519Y18954*
X21362Y19267*
Y19892*
X21519Y20204*
X21675Y20361*
X21987Y20517*
X22300*
X22612Y20361*
X22769Y20204*
X22925Y19892*
X23862Y18642D02*
Y20517D01*
X25425Y18642*
Y20517*
X26362Y18642D02*
Y20517D01*
X27300*
X27612Y20361*
X27769Y20204*
X27925Y19892*
Y19267*
X27769Y18954*
X27612Y18798*
X27300Y18642*
X26362*
X30730Y24991D02*
X31355D01*
X31043D02*
Y26865D01*
X30730Y26553*
X38281Y64794D02*
X37031D01*
X38125Y65887*
X38281Y66200*
X38125Y66512*
X37813Y66669*
X37344*
X37031Y66512*
X39282Y31961D02*
X39594D01*
X39907Y32118*
X40063Y32430*
X39907Y32743*
X39594Y32899*
X39282*
X38969Y32743*
X38813Y32430*
X38969Y32118*
X39282Y31961*
X38969Y31805*
X38813Y31493*
X38969Y31180*
X39282Y31024*
X39594*
X39907Y31180*
X40063Y31493*
X39907Y31805*
X39594Y31961*
X51972Y28819D02*
X53222Y30694D01*
X51972*
X52601Y68434D02*
X52914Y68278D01*
X53226*
X53539Y68434*
X53695Y68746*
X53539Y69059*
X53226Y69215*
X52914*
X53226D02*
X53539Y69372D01*
X53695Y69684*
X53539Y69996*
X53226Y70153*
X52914*
X52601Y69996*
X61730Y65453D02*
Y67328D01*
X60949Y66078*
X62199*
X65949Y36758D02*
X66105Y37071D01*
X66418Y37227*
X66730*
X67043Y37071*
X67199Y36758*
X67043Y36446*
X66730Y36290*
X66418*
X66105Y36446*
X65949Y36758*
Y37227*
X66105Y37696*
X66418Y38008*
X66730Y38165*
X68567Y52155D02*
X68880Y51998D01*
X69348*
X69661Y52155*
X69817Y52467*
Y52623*
X69661Y52936*
X69348Y53092*
X68567*
Y53873*
X69817*
X74523Y77100D02*
X74992D01*
Y76944*
X74835Y76631*
X74679Y76476*
X74367Y76319*
X74054*
X73742Y76476*
X73585Y76631*
X73429Y76944*
Y77569*
X73585Y77881*
X73742Y78038*
X74054Y78194*
X74367*
X74679Y78038*
X74835Y77881*
X74992Y77569*
X75929Y76319D02*
Y78194D01*
X77492Y76319*
Y78194*
X78429Y76319D02*
Y78194D01*
X79367*
X79679Y78038*
X79835Y77881*
X79992Y77569*
Y76944*
X79835Y76631*
X79679Y76476*
X79367Y76319*
X78429*
X0Y0D02*
M02*
