G04 EasyPC Gerber Version 21.0.3 Build 4286 *
G04 #@! TF.Part,Single*
G04 #@! TF.FileFunction,Other,array_prot3_v2 - Top Documentation *
G04 #@! TF.FilePolarity,Positive *
%FSLAX35Y35*%
%MOIN*%
%ADD20C,0.00100*%
%ADD71C,0.01000*%
X0Y0D02*
D02*
D71*
X20220Y53921D02*
G75*
G03Y44965J-4478D01*
G01*
G75*
G03Y53921J4478*
G01*
G36*
G75*
G03Y44965J-4478*
G01*
G75*
G03Y53921J4478*
G01*
G37*
X22878Y41923D02*
G75*
G03Y32967J-4478D01*
G01*
G75*
G03Y41923J4478*
G01*
G36*
G75*
G03Y32967J-4478*
G01*
G75*
G03Y41923J4478*
G01*
G37*
Y65407D02*
G75*
G03Y56451J-4478D01*
G01*
G75*
G03Y65407J4478*
G01*
G36*
G75*
G03Y56451J-4478*
G01*
G75*
G03Y65407J4478*
G01*
G37*
X28222Y32583D02*
G75*
G03Y23626J-4478D01*
G01*
G75*
G03Y32583J4478*
G01*
G36*
G75*
G03Y23626J-4478*
G01*
G75*
G03Y32583J4478*
G01*
G37*
X28321Y74955D02*
G75*
G03Y65998J-4478D01*
G01*
G75*
G03Y74955J4478*
G01*
G36*
G75*
G03Y65998J-4478*
G01*
G75*
G03Y74955J4478*
G01*
G37*
X35969Y53587D02*
G75*
G03Y44630J-4478D01*
G01*
G75*
G03Y53587J4478*
G01*
G36*
G75*
G03Y44630J-4478*
G01*
G75*
G03Y53587J4478*
G01*
G37*
X38370Y80693D02*
G75*
G03Y71736J-4478D01*
G01*
G75*
G03Y80693J4478*
G01*
G36*
G75*
G03Y71736J-4478*
G01*
G75*
G03Y80693J4478*
G01*
G37*
X38577Y26746D02*
G75*
G03Y17789J-4478D01*
G01*
G75*
G03Y26746J4478*
G01*
G36*
G75*
G03Y17789J-4478*
G01*
G75*
G03Y26746J4478*
G01*
G37*
X40171Y43498D02*
G75*
G03Y34541J-4478D01*
G01*
G75*
G03Y43498J4478*
G01*
G36*
G75*
G03Y34541J-4478*
G01*
G75*
G03Y43498J4478*
G01*
G37*
X40585Y62996D02*
G75*
G03Y54039J-4478D01*
G01*
G75*
G03Y62996J4478*
G01*
G36*
G75*
G03Y54039J-4478*
G01*
G75*
G03Y62996J4478*
G01*
G37*
X49758Y24276D02*
G75*
G03Y15319J-4478D01*
G01*
G75*
G03Y24276J4478*
G01*
G36*
G75*
G03Y15319J-4478*
G01*
G75*
G03Y24276J4478*
G01*
G37*
X49856Y83567D02*
G75*
G03Y74610J-4478D01*
G01*
G75*
G03Y83567J4478*
G01*
G36*
G75*
G03Y74610J-4478*
G01*
G75*
G03Y83567J4478*
G01*
G37*
X49984Y62002D02*
G75*
G03Y36136J-12933D01*
G01*
G75*
G03Y62002J12933*
G01*
X50171Y67317D02*
G75*
G03Y58360J-4478D01*
G01*
G75*
G03Y67317J4478*
G01*
G36*
G75*
G03Y58360J-4478*
G01*
G75*
G03Y67317J4478*
G01*
G37*
X50260Y40762D02*
G75*
G03Y31805J-4478D01*
G01*
G75*
G03Y40762J4478*
G01*
G36*
G75*
G03Y31805J-4478*
G01*
G75*
G03Y40762J4478*
G01*
G37*
X50289Y79925D02*
G75*
G03Y19236J-30344D01*
G01*
G75*
G03Y79925J30344*
G01*
X60220Y44217D02*
G75*
G03Y35260J-4478D01*
G01*
G75*
G03Y44217J4478*
G01*
G36*
G75*
G03Y35260J-4478*
G01*
G75*
G03Y44217J4478*
G01*
G37*
X60270Y63921D02*
G75*
G03Y54965J-4478D01*
G01*
G75*
G03Y63921J4478*
G01*
G36*
G75*
G03Y54965J-4478*
G01*
G75*
G03Y63921J4478*
G01*
G37*
X60939Y26028D02*
G75*
G03Y17071J-4478D01*
G01*
G75*
G03Y26028J4478*
G01*
G36*
G75*
G03Y17071J-4478*
G01*
G75*
G03Y26028J4478*
G01*
G37*
X61146Y81106D02*
G75*
G03Y72150J-4478D01*
G01*
G75*
G03Y81106J4478*
G01*
G36*
G75*
G03Y72150J-4478*
G01*
G75*
G03Y81106J4478*
G01*
G37*
X63508Y54000D02*
G75*
G03Y45043J-4478D01*
G01*
G75*
G03Y54000J4478*
G01*
G36*
G75*
G03Y45043J-4478*
G01*
G75*
G03Y54000J4478*
G01*
G37*
X71037Y32583D02*
G75*
G03Y23626J-4478D01*
G01*
G75*
G03Y32583J4478*
G01*
G36*
G75*
G03Y23626J-4478*
G01*
G75*
G03Y32583J4478*
G01*
G37*
X71500Y75358D02*
G75*
G03Y66402J-4478D01*
G01*
G75*
G03Y75358J4478*
G01*
G36*
G75*
G03Y66402J-4478*
G01*
G75*
G03Y75358J4478*
G01*
G37*
X78006Y42494D02*
G75*
G03Y33537J-4478D01*
G01*
G75*
G03Y42494J4478*
G01*
G36*
G75*
G03Y33537J-4478*
G01*
G75*
G03Y42494J4478*
G01*
G37*
X78173Y65407D02*
G75*
G03Y56451J-4478D01*
G01*
G75*
G03Y65407J4478*
G01*
G36*
G75*
G03Y56451J-4478*
G01*
G75*
G03Y65407J4478*
G01*
G37*
X80732Y53921D02*
G75*
G03Y44965J-4478D01*
G01*
G75*
G03Y53921J4478*
G01*
G36*
G75*
G03Y44965J-4478*
G01*
G75*
G03Y53921J4478*
G01*
G37*
D02*
D20*
X78174Y72445D02*
X78643D01*
Y72289*
X78487Y71976*
X78331Y71820*
X78018Y71664*
X77706*
X77393Y71820*
X77237Y71976*
X77081Y72289*
Y72914*
X77237Y73226*
X77393Y73382*
X77706Y73539*
X78018*
X78331Y73382*
X78487Y73226*
X78643Y72914*
X79581Y71664D02*
Y73539D01*
X81143Y71664*
Y73539*
X82081Y71664D02*
Y73539D01*
X83018*
X83331Y73382*
X83487Y73226*
X83643Y72914*
Y72289*
X83487Y71976*
X83331Y71820*
X83018Y71664*
X82081*
X0Y0D02*
M02*
