G04 EasyPC Gerber Version 21.0.3 Build 4286 *
G04 #@! TF.Part,Single*
G04 #@! TF.FileFunction,Copper,L2,Bot *
G04 #@! TF.FilePolarity,Positive *
%FSLAX35Y35*%
%MOIN*%
%ADD21C,0.01500*%
G04 #@! TA.AperFunction,ViaPad*
%ADD20C,0.04800*%
%ADD95C,0.05600*%
G04 #@! TA.AperFunction,WasherPad*
%ADD93C,0.09500*%
X0Y0D02*
D02*
D20*
X6250Y47850D03*
X6650Y111050D03*
X11850Y130450D03*
X14750Y27650D03*
X20850Y12850D03*
X23850Y60250D03*
X40650Y19250D03*
X73350Y55750D03*
X74950Y66350D03*
X81150Y73550D03*
X92750Y14550D03*
X102950Y14150D03*
X112850Y16250D03*
Y56350D03*
X135250Y68950D03*
X166950Y20050D03*
X175850Y51350D03*
X184750Y12150D03*
X195550Y59250D03*
X200650Y7650D03*
X207150Y63950D03*
D02*
D21*
X6650Y111050D02*
Y47850D01*
X6250*
X11850Y130450D02*
Y27650D01*
X14750*
X23750Y118750D02*
Y103050D01*
X23650Y102950*
X37350Y126650D02*
X31650D01*
X23750Y118750*
X41550Y97450D02*
X35850D01*
X33950Y95550*
X19550*
X15950Y91950*
Y38450*
X20650Y33750*
Y13050*
X20850Y12850*
X50950Y91950D02*
X48550D01*
X44550Y87950*
X35450*
X30650Y83150*
Y83050*
X23750Y76150*
Y60150*
X60450Y108450D02*
X65950D01*
X67750Y106650*
Y93450*
X55050Y80750*
Y78650*
X60250Y73450*
Y68850*
X73350Y55750*
X60550Y97650D02*
X59850D01*
Y90550*
X52450Y83150*
X51650*
X43950Y75450*
Y75350*
X40650Y72050*
Y19250*
X81150Y73550D02*
Y26150D01*
X92750Y14550*
X91750Y79250D02*
X86150D01*
X78150Y87250*
X95850Y97450D02*
Y88250D01*
X97550Y86550*
Y86350*
X100650Y83250*
Y77150*
X93950Y70450*
Y64950*
X98250Y60650*
Y9850*
X99650Y8450*
X110150*
X112850Y11150*
Y16250*
X96050Y108550D02*
X88450D01*
X85850Y111150*
X74250*
X71150Y108050*
Y91150*
X69150Y89150*
Y85550*
X74950Y79750*
Y66350*
X105450Y92050D02*
Y83350D01*
X110450Y78350*
Y76750*
X116350Y70850*
Y59850*
X112850Y56350*
X114850Y97750D02*
Y95650D01*
X125050Y85450*
Y83850*
X128550Y80350*
Y71550*
X123550Y66550*
Y56650*
X102950Y36050*
Y14150*
X114850Y108450D02*
X121250D01*
X123850Y111050*
X137750*
X141650Y107150*
Y86350*
X139650Y84350*
Y83150*
X134950Y78450*
Y69250*
X135250Y68950*
X150450Y97550D02*
Y87450D01*
X154950Y82950*
Y76650*
X150650Y72350*
Y36350*
X166950Y20050*
X150550Y108550D02*
Y117550D01*
X154350Y121350*
X158050*
X166950Y130250*
X167150*
X176050Y139150*
X207150*
Y63950*
X159950Y91950D02*
Y83950D01*
X165550Y78350*
Y76550*
X174850Y67250*
Y52350*
X175850Y51350*
X159950Y113850D02*
X162450D01*
X166350Y117750*
X176250*
X179950Y121450*
X180050*
X189950Y131350*
X197550*
X200650Y128250*
Y7650*
X169050Y39350D02*
Y43350D01*
X160550Y51850*
Y71050*
X160150Y71450*
X169350Y108450D02*
X174550D01*
X177250Y111150*
X194450*
X195450Y110150*
Y59350*
X195550Y59250*
X169450Y97550D02*
Y95450D01*
X178650Y86250*
Y85550*
X184750Y79450*
Y12150*
D02*
D93*
X23650Y87250D03*
Y102950D03*
X23750Y118750D03*
X37350Y79250D03*
Y126650D03*
X41450Y108550D03*
X41550Y97450D03*
X50850Y134250D03*
X50950Y91950D03*
X51050Y71450D03*
Y113950D03*
X60450Y108450D03*
X60550Y97650D03*
X64550Y79450D03*
Y126350D03*
X78150Y87250D03*
Y102950D03*
X78250Y118950D03*
X91750Y79250D03*
X91850Y126650D03*
X95850Y97450D03*
X96050Y108550D03*
X105350Y113850D03*
X105450Y92050D03*
Y134350D03*
X105550Y71350D03*
X114850Y97750D03*
Y108450D03*
X119150Y126350D03*
X119250Y79550D03*
X132750Y87250D03*
Y102950D03*
Y118850D03*
X146450Y79250D03*
Y126750D03*
X150450Y97550D03*
X150550Y108550D03*
X159950Y91950D03*
Y113850D03*
Y134350D03*
X160150Y71450D03*
X169350Y108450D03*
X169450Y97550D03*
X173850Y79450D03*
Y126350D03*
X187250Y118850D03*
X187350Y87350D03*
Y102950D03*
D02*
D95*
X169050Y39350D03*
X0Y0D02*
M02*
