G04 EasyPC Gerber Version 21.0.3 Build 4286 *
G04 #@! TF.Part,Single*
G04 #@! TF.FileFunction,Drillmap *
G04 #@! TF.FilePolarity,Positive *
%FSLAX35Y35*%
%MOIN*%
%ADD10C,0.00500*%
G04 #@! TA.AperFunction,ComponentPad*
%ADD79C,0.08000*%
%ADD78C,0.10000*%
X0Y0D02*
D02*
D10*
X33650Y93187D02*
Y96937D01*
X36775Y93187*
Y96937*
X33650Y108887D02*
Y112637D01*
X36775Y108887*
Y112637*
X33750Y124687D02*
Y128437D01*
X36875Y124687*
Y128437*
X47350Y85187D02*
Y88937D01*
X50475Y85187*
Y88937*
X47350Y132587D02*
Y136337D01*
X50475Y132587*
Y136337*
X51450Y114487D02*
Y118237D01*
X54575Y114487*
Y118237*
X51550Y103387D02*
Y107137D01*
X54675Y103387*
Y107137*
X60850Y140187D02*
Y143937D01*
X63975Y140187*
Y143937*
X60950Y97887D02*
Y101637D01*
X64075Y97887*
Y101637*
X61050Y77387D02*
Y81137D01*
X64175Y77387*
Y81137*
X61050Y119887D02*
Y123637D01*
X64175Y119887*
Y123637*
X70450Y114387D02*
Y118137D01*
X73575Y114387*
Y118137*
X70550Y103587D02*
Y107337D01*
X73675Y103587*
Y107337*
X74550Y85387D02*
Y89137D01*
X77675Y85387*
Y89137*
X74550Y132287D02*
Y136037D01*
X77675Y132287*
Y136037*
X88150Y93187D02*
Y96937D01*
X91275Y93187*
Y96937*
X88150Y108887D02*
Y112637D01*
X91275Y108887*
Y112637*
X88250Y124887D02*
Y128637D01*
X91375Y124887*
Y128637*
X101750Y85187D02*
Y88937D01*
X104875Y85187*
Y88937*
X101850Y132587D02*
Y136337D01*
X104975Y132587*
Y136337*
X105850Y103387D02*
Y107137D01*
X108975Y103387*
Y107137*
X106050Y114487D02*
Y118237D01*
X109175Y114487*
Y118237*
X115350Y119787D02*
Y123537D01*
X118475Y119787*
Y123537*
X115450Y97987D02*
Y101737D01*
X118575Y97987*
Y101737*
X115450Y140287D02*
Y144037D01*
X118575Y140287*
Y144037*
X115550Y77287D02*
Y81037D01*
X118675Y77287*
Y81037*
X124850Y103687D02*
Y107437D01*
X127975Y103687*
Y107437*
X124850Y114387D02*
Y118137D01*
X127975Y114387*
Y118137*
X129150Y132287D02*
Y136037D01*
X132275Y132287*
Y136037*
X129250Y85487D02*
Y89237D01*
X132375Y85487*
Y89237*
X142750Y93187D02*
Y96937D01*
X145875Y93187*
Y96937*
X142750Y108887D02*
Y112637D01*
X145875Y108887*
Y112637*
X142750Y124787D02*
Y128537D01*
X145875Y124787*
Y128537*
X156450Y85187D02*
Y88937D01*
X159575Y85187*
Y88937*
X156450Y132687D02*
Y136437D01*
X159575Y132687*
Y136437*
X160450Y103487D02*
Y107237D01*
X163575Y103487*
Y107237*
X160550Y114487D02*
Y118237D01*
X163675Y114487*
Y118237*
X169950Y97887D02*
Y101637D01*
X173075Y97887*
Y101637*
X169950Y119787D02*
Y123537D01*
X173075Y119787*
Y123537*
X169950Y140287D02*
Y144037D01*
X173075Y140287*
Y144037*
X170150Y77387D02*
Y81137D01*
X173275Y77387*
Y81137*
X179350Y114387D02*
Y118137D01*
X182475Y114387*
Y118137*
X179450Y103487D02*
Y107237D01*
X182575Y103487*
Y107237*
X183850Y85387D02*
Y89137D01*
X186975Y85387*
Y89137*
X183850Y132287D02*
Y136037D01*
X186975Y132287*
Y136037*
X197250Y124787D02*
Y128537D01*
X200375Y124787*
Y128537*
X197350Y93287D02*
Y97037D01*
X200475Y93287*
Y97037*
X197350Y108887D02*
Y112637D01*
X200475Y108887*
Y112637*
D02*
D78*
X23650Y87250D03*
Y102950D03*
X23750Y118750D03*
X37350Y79250D03*
Y126650D03*
X41450Y108550D03*
X41550Y97450D03*
X50850Y134250D03*
X50950Y91950D03*
X51050Y71450D03*
Y113950D03*
X60450Y108450D03*
X60550Y97650D03*
X64550Y79450D03*
Y126350D03*
X78150Y87250D03*
Y102950D03*
X78250Y118950D03*
X91750Y79250D03*
X91850Y126650D03*
X95850Y97450D03*
X96050Y108550D03*
X105350Y113850D03*
X105450Y92050D03*
Y134350D03*
X105550Y71350D03*
X114850Y97750D03*
Y108450D03*
X119150Y126350D03*
X119250Y79550D03*
X132750Y87250D03*
Y102950D03*
Y118850D03*
X146450Y79250D03*
Y126750D03*
X150450Y97550D03*
X150550Y108550D03*
X159950Y91950D03*
Y113850D03*
Y134350D03*
X160150Y71450D03*
X169350Y108450D03*
X169450Y97550D03*
X173850Y79450D03*
Y126350D03*
X187250Y118850D03*
X187350Y87350D03*
Y102950D03*
D02*
D79*
X6250Y47850D03*
X6650Y111050D03*
X11850Y130450D03*
X14750Y27650D03*
X20850Y12850D03*
X23850Y60250D03*
X40650Y19250D03*
X73350Y55750D03*
X74950Y66350D03*
X81150Y73550D03*
X92750Y14550D03*
X102950Y14150D03*
X112850Y16250D03*
Y56350D03*
X135250Y68950D03*
X166950Y20050D03*
X169050Y39350D03*
X175850Y51350D03*
X184750Y12150D03*
X195550Y59250D03*
X200650Y7650D03*
X207150Y63950D03*
X0Y0D02*
M02*
