G04 EasyPC Gerber Version 21.0.3 Build 4286 *
G04 #@! TF.Part,Single*
G04 #@! TF.FileFunction,Copper,L1,Top *
G04 #@! TF.FilePolarity,Positive *
%FSLAX35Y35*%
%MOIN*%
G04 #@! TA.AperFunction,SMDPad*
%ADD94R,0.05000X0.14488*%
G04 #@! TD.AperFunction*
%ADD21C,0.01500*%
G04 #@! TA.AperFunction,ViaPad*
%ADD20C,0.04800*%
%ADD95C,0.05600*%
G04 #@! TA.AperFunction,WasherPad*
%ADD93C,0.09500*%
X0Y0D02*
D02*
D20*
X6250Y47850D03*
X6650Y111050D03*
X11850Y130450D03*
X14750Y27650D03*
X20850Y12850D03*
X23850Y60250D03*
X40650Y19250D03*
X73350Y55750D03*
X74950Y66350D03*
X81150Y73550D03*
X92750Y14550D03*
X102950Y14150D03*
X112850Y16250D03*
Y56350D03*
X135250Y68950D03*
X166950Y20050D03*
X175850Y51350D03*
X184750Y12150D03*
X195550Y59250D03*
X200650Y7650D03*
X207150Y63950D03*
D02*
D21*
X6250Y47850D02*
X60290D01*
X62950Y45190*
X14750Y27650D02*
X62890D01*
X62950Y27710*
X20850Y12850D02*
X80350D01*
X83850Y16350*
Y26810*
X82950Y27710*
X23650Y102950D02*
Y87250D01*
X23850Y60250D02*
X80750D01*
X83050Y57950*
Y45290*
X82950Y45190*
X37350Y79250D02*
X31650D01*
X23650Y87250*
X40650Y19250D02*
Y18850D01*
X42950Y16550*
X70050*
X72750Y19250*
Y27510*
X72950Y27710*
X41450Y108550D02*
X34550D01*
X32050Y111050*
X6650*
X50850Y134250D02*
X44950D01*
X37350Y126650*
X50850Y134250D02*
X56650D01*
X64550Y126350*
X51050Y71450D02*
X56550D01*
X64550Y79450*
X51050Y71450D02*
X45150D01*
X37350Y79250*
X51050Y113950D02*
X50050D01*
X45650Y118350*
X35350*
X23250Y130450*
X11850*
X64550Y79450D02*
X70350D01*
X78150Y87250*
X64550Y126350D02*
X70850D01*
X78250Y118950*
X73350Y55750D02*
Y45590D01*
X72950Y45190*
X74950Y66350D02*
X84150D01*
X91750Y58750*
Y46390*
X92950Y45190*
X78150Y87250D02*
Y118850D01*
X78250Y118950*
X91850Y126650D02*
X85950D01*
X78250Y118950*
X92750Y14550D02*
Y27510D01*
X92950Y27710*
X102950Y14150D02*
Y27710D01*
X105350Y113850D02*
X103850D01*
X100350Y117350*
X92450*
X87850Y112750*
Y112650*
X86650Y111450*
Y85150*
X85150Y83650*
X85050*
X81150Y79750*
Y73550*
X105450Y134350D02*
X111150D01*
X119150Y126350*
X105450Y134350D02*
X99550D01*
X91850Y126650*
X105550Y71350D02*
X99650D01*
X91750Y79250*
X105550Y71350D02*
X111050D01*
X119250Y79550*
X112850Y16250D02*
Y27610D01*
X112950Y27710*
X112850Y56350D02*
Y45290D01*
X112950Y45190*
X119150Y126350D02*
X125250D01*
X132750Y118850*
X119250Y79550D02*
X125050D01*
X132750Y87250*
X122950Y45190D02*
Y56850D01*
X130050Y63950*
X207150*
X132750Y102950D02*
Y87250D01*
Y118850D02*
Y102950D01*
X135250Y68950D02*
X116350D01*
X102750Y55350*
Y45390*
X102950Y45190*
X146450Y79250D02*
X140750D01*
X132750Y87250*
X146450Y126750D02*
X140650D01*
X132750Y118850*
X152950Y27710D02*
Y45190D01*
Y39350*
X169050*
X159950Y134350D02*
X154050D01*
X146450Y126750*
X159950Y134350D02*
X165850D01*
X173850Y126350*
X160150Y71450D02*
X154250D01*
X146450Y79250*
X160150Y71450D02*
X165850D01*
X173850Y79450*
X166950Y20050D02*
X166150D01*
X161950Y15850*
X144750*
X142650Y17950*
Y27410*
X142950Y27710*
X173850Y79450D02*
X179450D01*
X187350Y87350*
X173850Y126350D02*
X179750D01*
X187250Y118850*
X175850Y51350D02*
X175050D01*
X171050Y55350*
X144850*
X142950Y53450*
Y45190*
X184750Y12150D02*
X138950D01*
X131850Y19250*
Y26610*
X132950Y27710*
X187350Y87350D02*
Y118750D01*
X187250Y118850*
X195550Y59250D02*
X136150D01*
X132550Y55650*
Y45590*
X132950Y45190*
X200650Y7650D02*
X132250D01*
X122350Y17550*
Y27110*
X122950Y27710*
D02*
D93*
X23650Y87250D03*
Y102950D03*
X23750Y118750D03*
X37350Y79250D03*
Y126650D03*
X41450Y108550D03*
X41550Y97450D03*
X50850Y134250D03*
X50950Y91950D03*
X51050Y71450D03*
Y113950D03*
X60450Y108450D03*
X60550Y97650D03*
X64550Y79450D03*
Y126350D03*
X78150Y87250D03*
Y102950D03*
X78250Y118950D03*
X91750Y79250D03*
X91850Y126650D03*
X95850Y97450D03*
X96050Y108550D03*
X105350Y113850D03*
X105450Y92050D03*
Y134350D03*
X105550Y71350D03*
X114850Y97750D03*
Y108450D03*
X119150Y126350D03*
X119250Y79550D03*
X132750Y87250D03*
Y102950D03*
Y118850D03*
X146450Y79250D03*
Y126750D03*
X150450Y97550D03*
X150550Y108550D03*
X159950Y91950D03*
Y113850D03*
Y134350D03*
X160150Y71450D03*
X169350Y108450D03*
X169450Y97550D03*
X173850Y79450D03*
Y126350D03*
X187250Y118850D03*
X187350Y87350D03*
Y102950D03*
D02*
D94*
X62950Y27710D03*
Y45190D03*
X72950Y27710D03*
Y45190D03*
X82950Y27710D03*
Y45190D03*
X92950Y27710D03*
Y45190D03*
X102950Y27710D03*
Y45190D03*
X112950Y27710D03*
Y45190D03*
X122950Y27710D03*
Y45190D03*
X132950Y27710D03*
Y45190D03*
X142950Y27710D03*
Y45190D03*
X152950Y27710D03*
Y45190D03*
D02*
D95*
X169050Y39350D03*
X0Y0D02*
M02*
